HIERARCHY
ROOT Hips
{
 OFFSET 0.000000 0.000000 0.000000
 CHANNELS 6 Xposition Yposition Zposition Yrotation Xrotation Zrotation
 JOINT Chest
 {
  OFFSET 0.000000 11.395451 -0.039534
  CHANNELS 3 Yrotation Xrotation Zrotation
  JOINT Chest2
  {
   OFFSET 0.000000 9.398669 0.071813
   CHANNELS 3 Yrotation Xrotation Zrotation
   JOINT Chest3
   {
    OFFSET 0.000000 8.489801 0.000000
    CHANNELS 3 Yrotation Xrotation Zrotation
    JOINT Chest4
    {
     OFFSET 0.000000 8.489801 0.000000
     CHANNELS 3 Yrotation Xrotation Zrotation
     JOINT Neck
     {
      OFFSET 0.000000 12.404889 0.000000
      CHANNELS 3 Yrotation Xrotation Zrotation
      JOINT Head
      {
       OFFSET 0.000000 8.903270 0.092239
       CHANNELS 3 Yrotation Xrotation Zrotation
       End Site
       {
        OFFSET 0.000000 17.592497 0.007158
       }
      }
     }
     JOINT RightCollar
     {
      OFFSET -3.196775 6.966722 0.000000
      CHANNELS 3 Yrotation Xrotation Zrotation
      JOINT RightShoulder
      {
       OFFSET -15.955896 0.000000 0.000000
       CHANNELS 3 Yrotation Xrotation Zrotation
       JOINT RightElbow
       {
        OFFSET -24.792472 0.000000 0.000000
        CHANNELS 3 Yrotation Xrotation Zrotation
        JOINT RightWrist
        {
         OFFSET -20.900115 0.000000 0.025002
         CHANNELS 3 Yrotation Xrotation Zrotation
         End Site
         {
          OFFSET -16.056692 0.000000 0.000000
         }
        }
       }
      }
     }
     JOINT LeftCollar
     {
      OFFSET 3.196775 6.966722 0.000000
      CHANNELS 3 Yrotation Xrotation Zrotation
      JOINT LeftShoulder
      {
       OFFSET 15.955896 0.000000 0.000000
       CHANNELS 3 Yrotation Xrotation Zrotation
       JOINT LeftElbow
       {
        OFFSET 24.792472 0.000000 0.000000
        CHANNELS 3 Yrotation Xrotation Zrotation
        JOINT LeftWrist
        {
         OFFSET 20.900115 0.000000 0.025002
         CHANNELS 3 Yrotation Xrotation Zrotation
         End Site
         {
          OFFSET 16.056692 0.000000 0.000000
         }
        }
       }
      }
     }
    }
   }
  }
 }
 JOINT RightHip
 {
  OFFSET -9.568995 0.193718 0.019767
  CHANNELS 3 Yrotation Xrotation Zrotation
  JOINT RightKnee
  {
   OFFSET 0.000000 -56.649296 0.015402
   CHANNELS 3 Yrotation Xrotation Zrotation
   JOINT RightAnkle
   {
    OFFSET 0.000000 -41.365147 0.021264
    CHANNELS 3 Yrotation Xrotation Zrotation
    JOINT RightToe
    {
     OFFSET 0.000000 -7.465940 17.672538
     CHANNELS 3 Yrotation Xrotation Zrotation
     End Site
     {
      OFFSET 0.000000 -1.736315 7.837145
     }
    }
   }
  }
 }
 JOINT LeftHip
 {
  OFFSET 9.568995 0.193718 0.019767
  CHANNELS 3 Yrotation Xrotation Zrotation
  JOINT LeftKnee
  {
   OFFSET 0.000000 -56.649296 0.015402
   CHANNELS 3 Yrotation Xrotation Zrotation
   JOINT LeftAnkle
   {
    OFFSET 0.000000 -41.365147 0.021264
    CHANNELS 3 Yrotation Xrotation Zrotation
    JOINT LeftToe
    {
     OFFSET 0.000000 -7.465940 17.672538
     CHANNELS 3 Yrotation Xrotation Zrotation
     End Site
     {
      OFFSET 0.000000 -1.736315 7.837145
     }
    }
   }
  }
 }
}
MOTION
Frames: 13
Frame Time: 0.016667
-145.220488 99.456081 292.042363 173.044790 50.694625 -0.752117 -0.262540 7.244880 1.687962 -0.142866 3.219033 0.752774 -0.142879 3.219062 0.752782 -0.111110 2.414143 0.565198 -1.209921 9.623999 0.599472 -2.642167 -18.287212 1.739773 -1.834911 18.212210 3.005701 53.808774 -39.543185 7.511600 43.976807 -39.695593 8.289292 9.770114 -23.177867 6.277378 -5.875873 16.820859 0.863485 -27.115304 -43.018928 -28.616729 -46.221077 -59.301999 -21.203542 -0.601844 -22.492228 -8.293101 -39.517738 -76.258451 43.159769 1.182840 31.015455 -1.727794 0.843295 -4.170732 -3.327519 -0.000000 -0.000000 0.000000 56.422526 -74.612178 -50.783239 -4.114042 33.007476 -0.474247 -0.107055 -4.405464 1.498875 -0.000000 0.000000 -0.000000
-145.253365 99.140018 292.108208 173.492043 52.576642 -0.414545 -0.172285 7.344828 1.683192 -0.103116 3.263773 0.749247 -0.103128 3.263799 0.749257 -0.081338 2.447743 0.562350 -1.256345 9.225681 0.662067 -2.775824 -19.023414 1.897831 -2.014378 18.423500 2.966868 55.636695 -39.748021 5.603113 43.965800 -40.338082 7.135651 9.941837 -23.229547 6.250630 -6.371502 17.275284 1.343478 -28.908199 -44.114077 -26.937392 -47.239773 -60.081291 -18.949493 -0.526298 -22.486595 -8.609233 -52.345574 -76.795500 55.677091 2.438865 32.488768 -1.879406 1.082495 -4.821434 -3.357048 0.000000 -0.000000 0.000000 65.185359 -75.364593 -60.210854 -7.722846 34.009848 -1.770750 2.591820 -4.787072 1.312233 -0.000000 -0.000000 0.000000
-145.273887 98.806423 292.155623 173.953506 54.480971 -0.060481 -0.121684 7.423330 1.684237 -0.080959 3.298803 0.748882 -0.080959 3.298803 0.748882 -0.064749 2.474007 0.561944 -1.284499 8.819595 0.697760 -2.862558 -19.775154 1.996321 -2.069192 18.694756 2.866547 57.402588 -39.940039 3.680726 43.997583 -40.924782 6.015466 10.124906 -23.309792 6.203752 -6.675058 17.674798 1.760471 -30.789448 -45.206874 -25.133367 -48.152589 -60.734910 -16.817561 -0.424365 -22.474544 -8.920406 -65.145485 -76.906120 68.266787 3.460252 33.946838 -2.005148 1.257588 -5.462549 -3.390154 0.000000 0.000000 0.000000 74.361798 -76.078900 -69.898458 -9.731789 35.067621 -2.783036 4.083249 -5.219457 1.264957 0.000000 0.000000 0.000000
-145.265087 98.464711 292.169035 174.358642 56.435242 0.204888 -0.157713 7.460852 1.728029 -0.097770 3.315302 0.768858 -0.097763 3.315284 0.768846 -0.077473 2.486335 0.576996 -1.249223 8.415066 0.678280 -2.798232 -20.527778 1.955885 -1.845527 19.074547 2.647463 59.109233 -40.120734 1.705338 44.053310 -41.373395 4.937802 10.294283 -23.468306 6.171016 -6.682294 17.913451 1.986666 -32.697892 -46.199507 -23.211608 -48.769574 -61.240697 -15.013437 -0.349258 -22.481553 -9.207347 -76.984570 -76.946484 80.058369 3.921354 35.289897 -2.099726 1.307354 -6.029575 -3.391293 0.000000 0.000000 0.000000 84.255495 -76.927213 -79.916667 -8.347638 36.244875 -2.849183 2.890414 -5.714497 1.584808 0.000000 -0.000000 -0.000000
-145.243932 98.105467 292.164016 174.775615 58.412595 0.484599 -0.230695 7.476899 1.782823 -0.131081 3.322130 0.794335 -0.131075 3.322109 0.794324 -0.102597 2.491403 0.596281 -1.197857 8.002826 0.630254 -2.687648 -21.296169 1.850662 -1.515470 19.514357 2.344723 60.751020 -40.294454 -0.279011 44.140262 -41.762754 3.896631 10.475142 -23.655130 6.119077 -6.524163 18.091270 2.121968 -34.702396 -47.187522 -21.173373 -49.221074 -61.628976 -13.381881 -0.248762 -22.482365 -9.489171 -88.455009 -76.710024 91.543267 4.141488 36.618761 -2.179328 1.293153 -6.587203 -3.391522 0.000000 0.000000 0.000000 95.475855 -77.685871 -91.068422 -5.238774 37.541056 -2.409228 0.479343 -6.245524 2.095780 -0.000000 0.000000 -0.000000
-145.245290 97.725959 292.153131 175.168197 60.355113 0.796126 -0.250719 7.511286 1.809378 -0.140529 3.337357 0.806454 -0.140529 3.337357 0.806454 -0.109775 2.502838 0.605438 -1.184600 7.589402 0.590423 -2.655881 -22.065438 1.780145 -1.347899 19.913882 2.018947 62.393333 -40.485178 -2.203131 44.255796 -42.224038 2.881730 10.742477 -23.777595 5.955422 -6.326764 18.317508 2.335410 -36.907934 -48.211080 -19.048444 -49.921354 -61.963312 -11.547703 -0.055998 -22.417661 -9.753455 -99.138602 -76.093508 102.251713 4.307907 37.992870 -2.201679 1.316153 -7.223158 -3.477155 0.000000 0.000000 0.000000 107.173604 -77.620224 -102.721382 -3.019638 38.854936 -2.130085 -1.274611 -6.782764 2.529449 0.000000 -0.000000 -0.000000
-145.301168 97.324488 292.140934 175.545567 62.236918 1.180739 -0.194822 7.582916 1.785297 -0.115630 3.369440 0.794873 -0.115633 3.369448 0.794878 -0.091090 2.526945 0.596628 -1.233317 7.171027 0.575333 -2.760072 -22.841299 1.790792 -1.448817 20.229277 1.685549 64.077235 -40.703448 -4.050225 44.369209 -42.852558 1.939772 11.177817 -23.774610 5.576764 -6.104858 18.640616 2.684695 -39.426586 -49.329207 -16.803963 -50.962422 -62.268128 -9.447012 0.218753 -22.260121 -9.954902 -108.809528 -75.215165 111.897834 4.440495 39.462089 -2.095602 1.424420 -8.015211 -3.713374 0.000000 -0.000000 0.000000 116.892441 -76.529188 -112.587393 -3.072821 40.118071 -2.474162 -1.365689 -7.336557 2.709011 -0.000000 -0.000000 0.000000
-145.379558 96.902753 292.122870 175.901596 64.084038 1.598393 -0.090788 7.673315 1.726844 -0.068876 3.410015 0.767221 -0.068879 3.410011 0.767222 -0.055931 2.557420 0.575631 -1.319449 6.751783 0.572158 -2.946346 -23.617116 1.846015 -1.705624 20.503716 1.348420 65.783344 -40.941911 -5.849587 44.529633 -43.549004 1.014847 11.701114 -23.708418 5.086589 -5.828716 19.008497 3.115565 -42.212187 -50.456423 -14.405789 -52.263837 -62.496661 -7.131497 0.581530 -22.035471 -10.135107 -117.336710 -74.079480 120.403379 4.528281 40.977014 -1.928271 1.572323 -8.885237 -4.038987 0.000000 0.000000 0.000000 124.230448 -74.858884 -120.130241 -4.113093 41.385665 -3.133955 -0.792640 -7.925864 2.775001 0.000000 -0.000000 0.000000
-145.419303 96.463119 292.097835 176.155064 65.917317 1.922302 0.073205 7.766047 1.647466 0.004829 3.451820 0.729247 0.004829 3.451820 0.729247 -0.000502 2.588875 0.546742 -1.424108 6.350143 0.574121 -3.173887 -24.359283 1.922914 -2.046550 20.766771 1.063485 67.495013 -41.195860 -7.606482 44.859300 -44.149287 -0.063358 12.144409 -23.672150 4.700053 -5.542370 19.379986 3.641899 -45.098321 -51.421251 -11.906403 -53.986521 -62.587914 -4.392367 1.121378 -21.759757 -10.411093 -124.014856 -72.502163 127.203576 4.706847 42.447490 -1.866987 1.719069 -9.687738 -4.350546 0.000000 0.000000 0.000000 129.955402 -72.891735 -125.904380 -4.800388 42.759173 -3.697398 -0.684713 -8.571545 2.922223 0.000000 0.000000 0.000000
-145.386443 95.997681 292.064514 176.101170 67.748170 1.939670 0.333495 7.848435 1.538634 0.121789 3.489287 0.676530 0.121793 3.489308 0.676532 0.087452 2.617140 0.506548 -1.543599 5.973770 0.596685 -3.443704 -25.052955 2.050583 -2.436397 21.044728 0.873816 69.163464 -41.395563 -9.265098 45.497775 -44.566211 -1.506768 12.445564 -23.724987 4.503121 -5.254285 19.704528 4.299123 -47.947270 -52.002749 -9.429057 -56.423349 -62.442070 -0.854216 1.926885 -21.406520 -10.846435 -128.415398 -70.454174 132.009581 5.070680 43.818379 -2.005840 1.855544 -10.345950 -4.595837 -0.000000 0.000000 -0.000000 134.707260 -70.699282 -130.382103 -4.538731 44.365393 -3.948133 -1.561857 -9.315418 3.284119 0.000000 0.000000 0.000000
-145.314938 95.514345 292.024221 175.855808 69.566261 1.774341 0.650473 7.933568 1.401580 0.264378 3.527976 0.610236 0.264383 3.527992 0.610235 0.194701 2.646279 0.456004 -1.681789 5.615499 0.625285 -3.756319 -25.711672 2.202448 -2.897784 21.313886 0.746768 70.847494 -41.613053 -10.883859 46.299094 -44.870814 -3.106950 12.665336 -23.807141 4.408365 -4.941758 20.027649 5.057435 -50.809234 -52.429427 -6.930134 -59.158632 -62.102466 3.002155 2.898836 -20.987361 -11.379987 -131.383266 -68.194781 135.553238 5.507323 45.143510 -2.263949 1.989081 -10.937412 -4.824323 0.000000 0.000000 0.000000 138.416482 -68.313048 -133.667605 -3.859140 46.092315 -3.995077 -2.915298 -10.099114 3.756431 0.000000 -0.000000 -0.000000
-145.245514 95.039182 291.979795 175.902529 71.361064 1.888920 0.924897 8.043405 1.269060 0.387974 3.577352 0.546526 0.387974 3.577352 0.546526 0.287683 2.683364 0.407488 -1.833074 5.271614 0.606957 -4.071390 -26.344831 2.268720 -3.447845 21.528488 0.621734 72.718960 -42.044720 -12.658983 46.952343 -45.143950 -4.400863 12.819697 -23.833544 4.369488 -4.602700 20.454762 5.835087 -53.870803 -53.201554 -4.153165 -61.373841 -61.772033 6.169808 3.851196 -20.581255 -11.937577 -133.996161 -65.967221 138.670533 5.834973 46.495944 -2.550725 2.101652 -11.548954 -5.082357 0.000000 0.000000 0.000000 141.063326 -65.883095 -136.031177 -3.073649 47.695080 -3.864681 -4.331102 -10.796350 4.187378 0.000000 0.000000 -0.000000
-145.188928 94.577683 291.942182 176.553343 73.129933 2.586391 1.131909 8.198347 1.153862 0.481306 3.646505 0.491440 0.481302 3.646506 0.491449 0.357916 2.735270 0.365594 -2.000205 4.930163 0.505293 -4.373647 -26.976250 2.176639 -4.126899 21.631043 0.516635 74.989138 -42.859007 -14.738984 47.268689 -45.389976 -5.078200 12.889424 -23.750109 4.389382 -4.218277 21.077388 6.649375 -57.446526 -54.664710 -0.783986 -62.765358 -61.570231 8.219582 4.771827 -20.217356 -12.510864 -136.560955 -63.777479 141.587727 6.006713 47.925877 -2.865584 2.202094 -12.210053 -5.408477 0.000000 0.000000 0.000000 142.634980 -63.410088 -137.571956 -2.223035 49.066062 -3.479885 -5.775711 -11.335627 4.511921 -0.000000 0.000000 -0.000000
